<?xml version="1.0" encoding="UTF-8"?>
<!-- Generator: Adobe Illustrator 19.0.0, SVG Export Plug-In . SVG Version: 6.00 Build 0)  -->
<svg version="1.1" id="Calque_1" xmlns="http://www.w3.org/2000/svg" xmlns:xlink="http://www.w3.org/1999/xlink" x="0px" y="0px" viewBox="0 0 121 121" style="enable-background:new 0 0 121 121;" xml:space="preserve">
<style type="text/css">
	.st0{fill-rule:evenodd;clip-rule:evenodd;fill:#FFFFFF;}
	.st1{fill:#FFFFFF;}
</style>
<g id="XMLID_2_">
	<path id="XMLID_24_" class="st0" d="M60.5,1.6C27.2,1.6,0.2,28.6,0.2,62c0,26.7,17.3,49.3,41.3,57.3c3,0.6,4.1-1.3,4.1-2.9   c0-1.4-0.1-6.2-0.1-11.2C28.7,108.8,25.2,98,25.2,98c-2.7-7-6.7-8.8-6.7-8.8c-5.5-3.7,0.4-3.7,0.4-3.7c6.1,0.4,9.3,6.2,9.3,6.2   c5.4,9.2,14.1,6.6,17.6,5c0.5-3.9,2.1-6.6,3.8-8.1C36.1,87.2,22,82,22,58.8c0-6.6,2.4-12,6.2-16.2c-0.6-1.5-2.7-7.7,0.6-16   c0,0,5.1-1.6,16.6,6.2c4.8-1.3,10-2,15.1-2c5.1,0,10.3,0.7,15.1,2c11.5-7.8,16.6-6.2,16.6-6.2c3.3,8.3,1.2,14.5,0.6,16   c3.9,4.2,6.2,9.6,6.2,16.2c0,23.2-14.1,28.3-27.6,29.8c2.2,1.9,4.1,5.5,4.1,11.2c0,8.1-0.1,14.6-0.1,16.6c0,1.6,1.1,3.5,4.1,2.9   c24-8,41.3-30.6,41.3-57.3C120.9,28.6,93.9,1.6,60.5,1.6z"/>
	<path id="XMLID_21_" class="st1" d="M23,88.3c-0.1,0.3-0.6,0.4-1,0.2c-0.4-0.2-0.7-0.6-0.5-0.9c0.1-0.3,0.6-0.4,1-0.2   C22.9,87.6,23.2,88,23,88.3L23,88.3z M22.3,87.8"/>
	<path id="XMLID_18_" class="st1" d="M25.5,91c-0.3,0.3-0.9,0.1-1.2-0.3c-0.4-0.4-0.5-1-0.2-1.3c0.3-0.3,0.8-0.1,1.2,0.3   C25.7,90.2,25.8,90.8,25.5,91L25.5,91z M24.9,90.4"/>
	<path id="XMLID_15_" class="st1" d="M27.9,94.5c-0.4,0.3-1,0-1.3-0.5c-0.4-0.5-0.4-1.2,0-1.4c0.4-0.3,1,0,1.3,0.5   C28.2,93.6,28.2,94.2,27.9,94.5L27.9,94.5z M27.9,94.5"/>
	<path id="XMLID_12_" class="st1" d="M31.1,97.9c-0.3,0.4-1,0.3-1.6-0.2c-0.5-0.5-0.7-1.2-0.3-1.5c0.3-0.4,1-0.3,1.6,0.2   C31.3,96.8,31.5,97.5,31.1,97.9L31.1,97.9z M31.1,97.9"/>
	<path id="XMLID_9_" class="st1" d="M35.6,99.8c-0.1,0.5-0.8,0.7-1.5,0.5c-0.7-0.2-1.1-0.8-1-1.2c0.1-0.5,0.8-0.7,1.5-0.5   C35.3,98.8,35.8,99.3,35.6,99.8L35.6,99.8z M35.6,99.8"/>
	<path id="XMLID_6_" class="st1" d="M40.6,100.2c0,0.5-0.6,0.9-1.3,0.9c-0.7,0-1.3-0.4-1.3-0.9c0-0.5,0.6-0.9,1.3-0.9   C40,99.3,40.6,99.7,40.6,100.2L40.6,100.2z M40.6,100.2"/>
	<path id="XMLID_3_" class="st1" d="M45.2,99.4c0.1,0.5-0.4,1-1.1,1.1c-0.7,0.1-1.3-0.2-1.4-0.7c-0.1-0.5,0.4-1,1.1-1.1   C44.4,98.6,45.1,98.9,45.2,99.4L45.2,99.4z M45.2,99.4"/>
</g>
</svg>