<?xml version="1.0" encoding="UTF-8"?>
<!-- Generator: Adobe Illustrator 19.0.0, SVG Export Plug-In . SVG Version: 6.00 Build 0)  -->
<svg version="1.1" xmlns="http://www.w3.org/2000/svg" xmlns:xlink="http://www.w3.org/1999/xlink" x="0px" y="0px" viewBox="0 0 2000 2000" style="enable-background:new 0 0 2000 2000;" xml:space="preserve">
<style type="text/css">
	.st0{fill:#2b8ff1;}
</style>
<polygon class="st0" points="1698.3,494 1841.1,245.7 1382.4,245.7 1386.2,247.9 1244.7,494 "/>
<polygon class="st0" points="774.4,621.9 917.1,870.2 1195.6,870.2 1147.4,953.8 1112.4,1014.5 1110.5,1017.8 1073.5,1081.8   970.8,1259.6 930.1,1330.1 894.8,1391.3 881.1,1415 856.3,1458 856.3,1458 827.4,1508 831.9,1515.7 832,1515.8 866.2,1575.1   873.1,1587.1 883.2,1604.5 941.9,1706.3 942.1,1706.3 970.9,1756.2 999.7,1706.3 1062.5,1597.6 1090.3,1549.3 1114.2,1508   1143,1458 1143,1458 1216.9,1330.1 1360.3,1081.8 1434.1,953.8 1482.4,870.2 1760.8,870.2 1903.6,621.9 "/>
<polygon class="st0" points="887.4,1111.5 952.5,998.1 951.9,998.1 821.9,998.1 783.4,931.5 748.1,870.2 604.7,621.9 565.8,554.6   530.8,494 530.8,494 1074.8,494 1217.6,245.7 100.7,245.7 100.8,245.7 100.7,245.7 168.3,362.7 172.5,370 243.8,494 244.1,494   244.1,494 317.9,621.9 317.3,621.9 384.4,738.7 398.6,763.3 460.5,870.2 461.3,870.2 535.1,998.1 534.5,998.1 678.2,1246.4   678.5,1246.4 809.1,1246.4 809.8,1246.4 886.3,1113.3 "/>
</svg>