<?xml version="1.0" encoding="UTF-8"?>
<svg version="1.1" xmlns="http://www.w3.org/2000/svg" xmlns:xlink="http://www.w3.org/1999/xlink" x="0px" y="0px" viewBox="0 0 1920 1080" style="enable-background:new 0 0 1920 1080;" xml:space="preserve">
<style type="text/css">
	.st0{fill:url(#XMLID_299_)}
	.st1{opacity:0.22;fill:#FFFFFF;stroke:#000000;stroke-miterlimit:10;}
	.st2{opacity:0.23;}
	.st3{opacity:0.36;fill:#FFFFFF;stroke:#000000;stroke-miterlimit:10;}
	.st4{opacity:0.49;fill:#FFFFFF;stroke:#000000;stroke-miterlimit:10;}
	.st5{opacity:0.18;fill:#FFFFFF;stroke:#000000;stroke-miterlimit:10;}
	.st6{opacity:0.1;fill:#FFFFFF;stroke:#000000;stroke-miterlimit:10;}
	.st7{opacity:0.46;fill:#FFFFFF;stroke:#000000;stroke-miterlimit:10;}
	.st8{opacity:0.37;fill:#FFFFFF;stroke:#000000;stroke-miterlimit:10;}
	.st9{opacity:0.52;fill:#FFFFFF;stroke:#000000;stroke-miterlimit:10;}
	.st10{opacity:0.5;fill:#FFFFFF;stroke:#000000;stroke-miterlimit:10;}
	.st11{fill:#FFFFFF;stroke:#000000;stroke-miterlimit:10;}
</style>
<g id="Calque_2">
	<linearGradient id="XMLID_299_" gradientUnits="userSpaceOnUse" x1="1913.8269" y1="-10.6922" x2="6.1731" y2="1090.6921">
		<stop offset="0" style="stop-color:#125B9F"/>
		<stop offset="0.2743" style="stop-color:#314990"/>
		<stop offset="0.7493" style="stop-color:#412C7D"/>
		<stop offset="1" style="stop-color:#441F77"/>
	</linearGradient>
	<rect id="XMLID_1_" x="0" class="st0" width="1920" height="1080"/>
	<polygon id="XMLID_38_" class="st1" points="669,554 667.2,555.3 665.9,557.1 664.6,555.3 662.8,554 664.6,552.7 665.9,550.9    667.2,552.7  "/>
	<polygon id="XMLID_39_" class="st1" points="772.5,743 770.6,744.3 769.3,746.2 768.1,744.3 766.2,743 768.1,741.8 769.3,739.9    770.6,741.8  "/>
	<polygon id="XMLID_40_" class="st1" points="963.1,912.2 961.3,913.5 960,915.4 958.7,913.5 956.9,912.2 958.7,911 960,909.1    961.3,911  "/>
	<polygon id="XMLID_41_" class="st1" points="994.7,388 992.9,389.3 991.6,391.1 990.3,389.3 988.5,388 990.3,386.7 991.6,384.9    992.9,386.7  "/>
	<polygon id="XMLID_42_" class="st1" points="1112.5,674.8 1110.7,676.1 1109.4,678 1108.2,676.1 1106.3,674.8 1108.2,673.6    1109.4,671.7 1110.7,673.6  "/>
	<polygon id="XMLID_43_" class="st1" points="669,163.3 667.2,164.6 665.9,166.4 664.6,164.6 662.8,163.3 664.6,162 665.9,160.2    667.2,162  "/>
	<polygon id="XMLID_44_" class="st1" points="648.2,44 646.4,45.2 645.1,47.1 643.8,45.2 642,44 643.8,42.7 645.1,40.9 646.4,42.7     "/>
	<polygon id="XMLID_45_" class="st1" points="574.5,93.2 572.7,94.5 571.4,96.3 570.1,94.5 568.3,93.2 570.1,92 571.4,90.1    572.7,92  "/>
	<polygon id="XMLID_46_" class="st1" points="214.8,75.6 213,76.8 211.7,78.7 210.5,76.8 208.6,75.6 210.5,74.3 211.7,72.5    213,74.3  "/>
	<polygon id="XMLID_47_" class="st1" points="179.5,317.6 177.7,318.8 176.4,320.7 175.1,318.8 173.3,317.6 175.1,316.3    176.4,314.5 177.7,316.3  "/>
	<polygon id="XMLID_48_" class="st1" points="270,600.2 268.2,601.4 266.9,603.3 265.7,601.4 263.8,600.2 265.7,598.9 266.9,597.1    268.2,598.9  "/>
	<polygon id="XMLID_49_" class="st1" points="137.2,1048.4 135.4,1049.7 134.1,1051.5 132.8,1049.7 131,1048.4 132.8,1047.1    134.1,1045.3 135.4,1047.1  "/>
	<polygon id="XMLID_50_" class="st1" points="1285.2,75.6 1283.3,76.8 1282.1,78.7 1280.8,76.8 1278.9,75.6 1280.8,74.3    1282.1,72.5 1283.3,74.3  "/>
	<polygon id="XMLID_51_" class="st1" points="1264.4,259.6 1262.5,260.8 1261.3,262.7 1260,260.8 1258.2,259.6 1260,258.3    1261.3,256.4 1262.5,258.3  "/>
	<polygon id="XMLID_52_" class="st1" points="1366.5,610.6 1364.7,611.8 1363.4,613.7 1362.1,611.8 1360.3,610.6 1362.1,609.3    1363.4,607.5 1364.7,609.3  "/>
	<polygon id="XMLID_53_" class="st1" points="627.4,1048.4 625.6,1049.7 624.3,1051.5 623.1,1049.7 621.2,1048.4 623.1,1047.1    624.3,1045.3 625.6,1047.1  "/>
	<polygon id="XMLID_54_" class="st1" points="1254,1037.6 1252.1,1038.8 1250.9,1040.7 1249.6,1038.8 1247.8,1037.6 1249.6,1036.3    1250.9,1034.5 1252.1,1036.3  "/>
	<polygon id="XMLID_55_" class="st1" points="1494.2,753.4 1492.3,754.7 1491,756.6 1489.8,754.7 1487.9,753.4 1489.8,752.2    1491,750.3 1492.3,752.2  "/>
	<polygon id="XMLID_56_" class="st1" points="1525.9,75.6 1524,76.8 1522.8,78.7 1521.5,76.8 1519.7,75.6 1521.5,74.3 1522.8,72.5    1524,74.3  "/>
	<polygon id="XMLID_57_" class="st1" points="1867.6,224.7 1865.8,225.9 1864.5,227.8 1863.3,225.9 1861.4,224.7 1863.3,223.4    1864.5,221.6 1865.8,223.4  "/>
	<polygon id="XMLID_58_" class="st1" points="18.3,224.7 16.5,225.9 15.2,227.8 14,225.9 12.1,224.7 14,223.4 15.2,221.6    16.5,223.4  "/>
	<polygon id="XMLID_59_" class="st1" points="1912.7,307.2 1910.9,308.4 1909.6,310.3 1908.3,308.4 1906.5,307.2 1908.3,305.9    1909.6,304.1 1910.9,305.9  "/>
	<polygon id="XMLID_60_" class="st1" points="1627.6,296.8 1625.7,298.1 1624.5,299.9 1623.2,298.1 1621.3,296.8 1623.2,295.5    1624.5,293.7 1625.7,295.5  "/>
	<polygon id="XMLID_61_" class="st1" points="1749.6,691.2 1747.7,692.4 1746.5,694.3 1745.2,692.4 1743.4,691.2 1745.2,689.9    1746.5,688 1747.7,689.9  "/>
	<polygon id="XMLID_62_" class="st1" points="1846.8,854.9 1845,856.1 1843.7,858 1842.5,856.1 1840.6,854.9 1842.5,853.6    1843.7,851.8 1845,853.6  "/>
	<polygon id="XMLID_63_" class="st1" points="1902.3,564.4 1900.5,565.7 1899.2,567.5 1898,565.7 1896.1,564.4 1898,563.1    1899.2,561.3 1900.5,563.1  "/>
	<polygon id="XMLID_64_" class="st1" points="1681.5,1080 1679.7,1081.3 1678.4,1083.1 1677.1,1081.3 1675.3,1080 1677.1,1078.7    1678.4,1076.9 1679.7,1078.7  "/>
	<polygon id="XMLID_65_" class="st1" points="526.7,939.3 524.9,940.6 523.6,942.5 522.4,940.6 520.5,939.3 522.4,938.1    523.6,936.2 524.9,938.1  "/>
	<polygon id="XMLID_66_" class="st1" points="3.1,776 1.3,777.3 0,779.1 -1.3,777.3 -3.1,776 -1.3,774.7 0,772.9 1.3,774.7  "/>
	<polygon id="XMLID_67_" class="st1" points="889.3,573 887.5,574.3 886.2,576.2 885,574.3 883.1,573 885,571.8 886.2,569.9    887.5,571.8  "/>
	<polygon id="XMLID_68_" class="st1" points="451.8,328 449.9,329.2 448.7,331.1 447.4,329.2 445.6,328 447.4,326.7 448.7,324.9    449.9,326.7  "/>
	<polygon id="XMLID_69_" class="st1" points="214.8,713.3 213,714.6 211.7,716.5 210.5,714.6 208.6,713.3 210.5,712.1 211.7,710.2    213,712.1  "/>
	<polygon id="XMLID_70_" class="st1" points="1043.9,27.8 1042,29.1 1040.8,30.9 1039.5,29.1 1037.7,27.8 1039.5,26.5 1040.8,24.7    1042,26.5  "/>
	<polygon id="XMLID_71_" class="st1" points="1572.8,543.6 1570.9,544.9 1569.7,546.7 1568.4,544.9 1566.5,543.6 1568.4,542.3    1569.7,540.5 1570.9,542.3  "/>
	<polygon id="XMLID_72_" class="st1" points="388.2,173.7 386.3,175 385,176.8 383.8,175 381.9,173.7 383.8,172.4 385,170.6    386.3,172.4  "/>
	<polygon id="XMLID_73_" class="st1" points="1627.6,463.4 1625.7,464.7 1624.5,466.5 1623.2,464.7 1621.3,463.4 1623.2,462.1    1624.5,460.3 1625.7,462.1  "/>
	<polygon id="XMLID_74_" class="st1" points="409.4,972 407.5,973.2 406.2,975.1 405,973.2 403.1,972 405,970.7 406.2,968.9    407.5,970.7  "/>
	<polygon id="XMLID_75_" class="st1" points="498.2,437.6 496.4,438.8 495.1,440.7 493.9,438.8 492,437.6 493.9,436.3 495.1,434.4    496.4,436.3  "/>
	<polygon id="XMLID_76_" class="st1" points="1504.5,922.6 1502.7,923.9 1501.4,925.8 1500.2,923.9 1498.3,922.6 1500.2,921.4    1501.4,919.5 1502.7,921.4  "/>
</g>
<g id="Calque_1" class="st2">
	<polygon id="XMLID_2_" class="st3" points="84.8,102.2 81.7,104.3 79.6,107.4 77.5,104.3 74.4,102.2 77.5,100.1 79.6,97    81.7,100.1  "/>
	<polygon id="XMLID_3_" class="st4" points="390.2,65.2 387.1,67.3 385,70.4 382.9,67.3 379.8,65.2 382.9,63.1 385,60 387.1,63.1     "/>
	<polygon id="XMLID_4_" class="st5" points="310,199.4 305.6,202.4 302.6,206.9 299.6,202.4 295.1,199.4 299.6,196.4 302.6,192    305.6,196.4  "/>
	<polygon id="XMLID_6_" class="st3" points="686.7,328 683.6,330.1 681.5,333.2 679.4,330.1 676.3,328 679.4,325.9 681.5,322.8    683.6,325.9  "/>
	<polygon id="XMLID_7_" class="st6" points="801.2,65.2 794.8,69.5 790.6,75.8 786.3,69.5 780,65.2 786.3,60.9 790.6,54.6    794.8,60.9  "/>
	<polygon id="XMLID_8_" class="st5" points="391,463.4 387.4,465.8 385,469.3 382.6,465.8 379.1,463.4 382.6,461 385,457.5    387.4,461  "/>
	<polygon id="XMLID_9_" class="st5" points="139.3,600.2 136.2,602.3 134.1,605.4 132,602.3 128.9,600.2 132,598.1 134.1,595    136.2,598.1  "/>
	<polygon id="XMLID_10_" class="st5" points="391,706 387.4,708.4 385,711.9 382.6,708.4 379.1,706 382.6,703.6 385,700.1    387.4,703.6  "/>
	<polygon id="XMLID_11_" class="st6" points="750.5,678.2 746,681.2 743,685.6 740,681.2 735.6,678.2 740,675.2 743,670.8    746,675.2  "/>
	<polygon id="XMLID_12_" class="st7" points="870.6,259.6 867.5,261.7 865.4,264.8 863.3,261.7 860.2,259.6 863.3,257.5    865.4,254.4 867.5,257.5  "/>
	<polygon id="XMLID_13_" class="st3" points="986.4,554 983.3,556.1 981.2,559.2 979.1,556.1 976,554 979.1,551.9 981.2,548.8    983.3,551.9  "/>
	<polygon id="XMLID_14_" class="st3" points="1125,133.4 1121.9,135.5 1119.8,138.6 1117.7,135.5 1114.6,133.4 1117.7,131.3    1119.8,128.2 1121.9,131.3  "/>
	<polygon id="XMLID_15_" class="st6" points="1361.5,72 1356.4,75.4 1353,80.5 1349.6,75.4 1344.5,72 1349.6,68.6 1353,63.5    1356.4,68.6  "/>
	<polygon id="XMLID_16_" class="st3" points="1146.2,349.2 1143.1,351.3 1141,354.4 1138.9,351.3 1135.8,349.2 1138.9,347.1    1141,344 1143.1,347.1  "/>
	<polygon id="XMLID_17_" class="st8" points="1222.6,664.4 1219.5,666.5 1217.4,669.6 1215.3,666.5 1212.2,664.4 1215.3,662.3    1217.4,659.2 1219.5,662.3  "/>
	<polygon id="XMLID_18_" class="st6" points="1394.2,361.2 1391.1,363.3 1389,366.4 1386.9,363.3 1383.8,361.2 1386.9,359.1    1389,356 1391.1,359.1  "/>
	<polygon id="XMLID_19_" class="st6" points="1498.5,584.2 1494,587.2 1491,591.6 1488,587.2 1483.6,584.2 1488,581.2 1491,576.8    1494,581.2  "/>
	<polygon id="XMLID_20_" class="st3" points="1528,328 1524.9,330.1 1522.8,333.2 1520.7,330.1 1517.6,328 1520.7,325.9    1522.8,322.8 1524.9,325.9  "/>
	<polygon id="XMLID_21_" class="st6" points="1749.5,431.2 1745,434.2 1742,438.6 1739,434.2 1734.6,431.2 1739,428.2 1742,423.8    1745,428.2  "/>
	<polygon id="XMLID_22_" class="st3" points="1819.2,38.2 1816.1,40.3 1814,43.4 1811.9,40.3 1808.8,38.2 1811.9,36.1 1814,33    1816.1,36.1  "/>
	<polygon id="XMLID_23_" class="st6" points="1791.9,728.2 1787.5,731.2 1784.5,735.6 1781.5,731.2 1777,728.2 1781.5,725.2    1784.5,720.8 1787.5,725.2  "/>
	<polygon id="XMLID_24_" class="st3" points="1571.2,912.2 1567.6,914.6 1565.2,918.2 1562.8,914.6 1559.3,912.2 1562.8,909.8    1565.2,906.3 1567.6,909.8  "/>
	<polygon id="XMLID_25_" class="st6" points="1339.8,993.2 1335.8,995.9 1333,1000 1330.3,995.9 1326.2,993.2 1330.3,990.5    1333,986.4 1335.8,990.5  "/>
	<polygon id="XMLID_26_" class="st3" points="1081.2,912.2 1078.1,914.3 1076,917.4 1073.9,914.3 1070.8,912.2 1073.9,910.1    1076,907 1078.1,910.1  "/>
	<polygon id="XMLID_27_" class="st3" points="727,1004 723.9,1006.1 721.8,1009.2 719.7,1006.1 716.6,1004 719.7,1001.9    721.8,998.8 723.9,1001.9  "/>
	<polygon id="XMLID_29_" class="st9" points="555.8,818.4 552.7,820.5 550.6,823.6 548.5,820.5 545.4,818.4 548.5,816.3    550.6,813.2 552.7,816.3  "/>
	<polygon id="XMLID_32_" class="st5" points="20.4,939.3 17.3,941.4 15.2,944.5 13.1,941.4 10,939.3 13.1,937.2 15.2,934.1    17.3,937.2  "/>
	<polygon id="XMLID_28_" class="st10" points="949.2,776 946.1,778.1 944,781.2 941.9,778.1 938.8,776 941.9,773.9 944,770.8    946.1,773.9  "/>
	<polygon id="XMLID_30_" class="st3" points="171.2,388 168.1,390.1 166,393.2 163.9,390.1 160.8,388 163.9,385.9 166,382.8    168.1,385.9  "/>
	<polygon id="XMLID_31_" class="st3" points="232.5,900.4 229,902.8 226.6,906.4 224.2,902.8 220.6,900.4 224.2,898 226.6,894.5    229,898  "/>
	<polygon id="XMLID_36_" class="st5" points="775.3,452.4 771.7,454.8 769.3,458.3 766.9,454.8 763.4,452.4 766.9,450 769.3,446.5    771.7,450  "/>
	<polygon id="XMLID_35_" class="st6" points="1708.1,972 1703,975.4 1699.6,980.5 1696.2,975.4 1691.1,972 1696.2,968.6    1699.6,963.5 1703,968.6  "/>
	<polygon id="XMLID_34_" class="st11" points="1879.1,1058.8 1876.6,1060.5 1874.9,1062.9 1873.2,1060.5 1870.8,1058.8    1873.2,1057.1 1874.9,1054.6 1876.6,1057.1  "/>
	<polygon id="XMLID_33_" class="st6" points="435.9,1058.8 430.9,1062.2 427.5,1067.3 424,1062.2 419,1058.8 424,1055.4    427.5,1050.3 430.9,1055.4  "/>
	<polygon id="XMLID_37_" class="st9" points="453.9,939.3 450.8,941.4 448.7,944.5 446.6,941.4 443.5,939.3 446.6,937.2    448.7,934.1 450.8,937.2  "/>
	<polygon id="XMLID_151_" class="st1" points="598.2,624 596.3,625.3 595.1,627.1 593.8,625.3 591.9,624 593.8,622.7 595.1,620.9    596.3,622.7  "/>
	<polygon id="XMLID_150_" class="st1" points="701.6,813 699.8,814.3 698.5,816.2 697.2,814.3 695.4,813 697.2,811.8 698.5,809.9    699.8,811.8  "/>
	<polygon id="XMLID_149_" class="st1" points="892.3,982.2 890.4,983.5 889.2,985.4 887.9,983.5 886,982.2 887.9,981 889.2,979.1    890.4,981  "/>
	<polygon id="XMLID_148_" class="st1" points="923.9,458 922,459.3 920.8,461.1 919.5,459.3 917.6,458 919.5,456.7 920.8,454.9    922,456.7  "/>
	<polygon id="XMLID_147_" class="st1" points="1041.7,744.8 1039.8,746.1 1038.6,748 1037.3,746.1 1035.5,744.8 1037.3,743.6    1038.6,741.7 1039.8,743.6  "/>
	<polygon id="XMLID_146_" class="st1" points="598.2,233.3 596.3,234.6 595.1,236.4 593.8,234.6 591.9,233.3 593.8,232 595.1,230.2    596.3,232  "/>
	<polygon id="XMLID_145_" class="st1" points="577.4,114 575.5,115.2 574.3,117.1 573,115.2 571.1,114 573,112.7 574.3,110.9    575.5,112.7  "/>
	<polygon id="XMLID_144_" class="st1" points="503.7,163.2 501.8,164.5 500.6,166.3 499.3,164.5 497.4,163.2 499.3,162 500.6,160.1    501.8,162  "/>
	<polygon id="XMLID_143_" class="st1" points="144,145.6 142.1,146.8 140.9,148.7 139.6,146.8 137.7,145.6 139.6,144.3 140.9,142.5    142.1,144.3  "/>
	<polygon id="XMLID_142_" class="st1" points="108.7,387.6 106.8,388.8 105.6,390.7 104.3,388.8 102.4,387.6 104.3,386.3    105.6,384.5 106.8,386.3  "/>
	<polygon id="XMLID_141_" class="st1" points="199.2,670.2 197.3,671.4 196.1,673.3 194.8,671.4 193,670.2 194.8,668.9 196.1,667.1    197.3,668.9  "/>
	<polygon id="XMLID_140_" class="st1" points="66.4,1118.4 64.5,1119.7 63.3,1121.5 62,1119.7 60.1,1118.4 62,1117.1 63.3,1115.3    64.5,1117.1  "/>
	<polygon id="XMLID_139_" class="st1" points="1214.3,145.6 1212.5,146.8 1211.2,148.7 1210,146.8 1208.1,145.6 1210,144.3    1211.2,142.5 1212.5,144.3  "/>
	<polygon id="XMLID_138_" class="st1" points="1193.5,329.6 1191.7,330.8 1190.4,332.7 1189.2,330.8 1187.3,329.6 1189.2,328.3    1190.4,326.4 1191.7,328.3  "/>
	<polygon id="XMLID_137_" class="st1" points="1295.7,680.6 1293.8,681.8 1292.6,683.7 1291.3,681.8 1289.4,680.6 1291.3,679.3    1292.6,677.5 1293.8,679.3  "/>
	<polygon id="XMLID_136_" class="st1" points="556.6,1118.4 554.7,1119.7 553.5,1121.5 552.2,1119.7 550.4,1118.4 552.2,1117.1    553.5,1115.3 554.7,1117.1  "/>
	<polygon id="XMLID_135_" class="st1" points="1183.2,1107.6 1181.3,1108.8 1180,1110.7 1178.8,1108.8 1176.9,1107.6 1178.8,1106.3    1180,1104.5 1181.3,1106.3  "/>
	<polygon id="XMLID_134_" class="st1" points="1423.3,823.4 1421.5,824.7 1420.2,826.6 1418.9,824.7 1417.1,823.4 1418.9,822.2    1420.2,820.3 1421.5,822.2  "/>
	<polygon id="XMLID_133_" class="st1" points="1455.1,145.6 1453.2,146.8 1451.9,148.7 1450.7,146.8 1448.8,145.6 1450.7,144.3    1451.9,142.5 1453.2,144.3  "/>
	<polygon id="XMLID_132_" class="st1" points="1796.8,294.7 1794.9,295.9 1793.7,297.8 1792.4,295.9 1790.6,294.7 1792.4,293.4    1793.7,291.6 1794.9,293.4  "/>
	<polygon id="XMLID_131_" class="st1" points="-52.5,294.7 -54.4,295.9 -55.6,297.8 -56.9,295.9 -58.7,294.7 -56.9,293.4    -55.6,291.6 -54.4,293.4  "/>
	<polygon id="XMLID_130_" class="st1" points="1841.9,377.2 1840,378.4 1838.8,380.3 1837.5,378.4 1835.6,377.2 1837.5,375.9    1838.8,374.1 1840,375.9  "/>
	<polygon id="XMLID_129_" class="st1" points="1556.7,366.8 1554.9,368.1 1553.6,369.9 1552.4,368.1 1550.5,366.8 1552.4,365.5    1553.6,363.7 1554.9,365.5  "/>
	<polygon id="XMLID_128_" class="st1" points="1678.8,761.2 1676.9,762.4 1675.6,764.3 1674.4,762.4 1672.5,761.2 1674.4,759.9    1675.6,758 1676.9,759.9  "/>
	<polygon id="XMLID_127_" class="st1" points="1776,924.9 1774.1,926.1 1772.9,928 1771.6,926.1 1769.8,924.9 1771.6,923.6    1772.9,921.8 1774.1,923.6  "/>
	<polygon id="XMLID_126_" class="st1" points="1831.5,634.4 1829.6,635.7 1828.4,637.5 1827.1,635.7 1825.3,634.4 1827.1,633.1    1828.4,631.3 1829.6,633.1  "/>
	<polygon id="XMLID_125_" class="st1" points="1610.7,1150 1608.8,1151.3 1607.6,1153.1 1606.3,1151.3 1604.4,1150 1606.3,1148.7    1607.6,1146.9 1608.8,1148.7  "/>
	<polygon id="XMLID_124_" class="st1" points="455.9,1009.3 454,1010.6 452.8,1012.5 451.5,1010.6 449.7,1009.3 451.5,1008.1    452.8,1006.2 454,1008.1  "/>
	<polygon id="XMLID_123_" class="st1" points="-67.7,846 -69.6,847.3 -70.8,849.1 -72.1,847.3 -74,846 -72.1,844.7 -70.8,842.9    -69.6,844.7  "/>
	<polygon id="XMLID_122_" class="st1" points="818.5,643 816.6,644.3 815.4,646.2 814.1,644.3 812.3,643 814.1,641.8 815.4,639.9    816.6,641.8  "/>
	<polygon id="XMLID_121_" class="st1" points="381,398 379.1,399.2 377.8,401.1 376.6,399.2 374.7,398 376.6,396.7 377.8,394.9    379.1,396.7  "/>
	<polygon id="XMLID_120_" class="st1" points="144,783.3 142.1,784.6 140.9,786.5 139.6,784.6 137.7,783.3 139.6,782.1 140.9,780.2    142.1,782.1  "/>
	<polygon id="XMLID_119_" class="st1" points="973.1,97.8 971.2,99.1 969.9,100.9 968.7,99.1 966.8,97.8 968.7,96.5 969.9,94.7    971.2,96.5  "/>
	<polygon id="XMLID_118_" class="st1" points="1501.9,613.6 1500.1,614.9 1498.8,616.7 1497.6,614.9 1495.7,613.6 1497.6,612.3    1498.8,610.5 1500.1,612.3  "/>
	<polygon id="XMLID_117_" class="st1" points="317.3,243.7 315.5,245 314.2,246.8 312.9,245 311.1,243.7 312.9,242.4 314.2,240.6    315.5,242.4  "/>
	<polygon id="XMLID_116_" class="st1" points="1556.7,533.4 1554.9,534.7 1553.6,536.5 1552.4,534.7 1550.5,533.4 1552.4,532.1    1553.6,530.3 1554.9,532.1  "/>
	<polygon id="XMLID_115_" class="st1" points="338.5,1042 336.7,1043.2 335.4,1045.1 334.1,1043.2 332.3,1042 334.1,1040.7    335.4,1038.9 336.7,1040.7  "/>
	<polygon id="XMLID_114_" class="st1" points="427.4,507.6 425.5,508.8 424.3,510.7 423,508.8 421.2,507.6 423,506.3 424.3,504.4    425.5,506.3  "/>
	<polygon id="XMLID_113_" class="st1" points="1433.7,992.6 1431.8,993.9 1430.6,995.8 1429.3,993.9 1427.5,992.6 1429.3,991.4    1430.6,989.5 1431.8,991.4  "/>
	<polygon id="XMLID_111_" class="st3" points="14,172.2 10.9,174.3 8.8,177.4 6.7,174.3 3.6,172.2 6.7,170.1 8.8,167 10.9,170.1     "/>
	<polygon id="XMLID_110_" class="st4" points="319.4,135.2 316.3,137.3 314.2,140.4 312.1,137.3 309,135.2 312.1,133.1 314.2,130    316.3,133.1  "/>
	<polygon id="XMLID_109_" class="st5" points="239.1,269.4 234.7,272.4 231.7,276.9 228.7,272.4 224.3,269.4 228.7,266.4 231.7,262    234.7,266.4  "/>
	<polygon id="XMLID_108_" class="st3" points="615.8,398 612.7,400.1 610.6,403.2 608.5,400.1 605.4,398 608.5,395.9 610.6,392.8    612.7,395.9  "/>
	<polygon id="XMLID_107_" class="st6" points="730.3,135.2 724,139.5 719.7,145.8 715.4,139.5 709.1,135.2 715.4,130.9 719.7,124.6    724,130.9  "/>
	<polygon id="XMLID_106_" class="st5" points="320.1,533.4 316.6,535.8 314.2,539.3 311.8,535.8 308.3,533.4 311.8,531 314.2,527.5    316.6,531  "/>
	<polygon id="XMLID_105_" class="st5" points="68.5,670.2 65.4,672.3 63.3,675.4 61.2,672.3 58.1,670.2 61.2,668.1 63.3,665    65.4,668.1  "/>
	<polygon id="XMLID_104_" class="st5" points="320.1,776 316.6,778.4 314.2,781.9 311.8,778.4 308.3,776 311.8,773.6 314.2,770.1    316.6,773.6  "/>
	<polygon id="XMLID_103_" class="st6" points="679.6,748.2 675.2,751.2 672.2,755.6 669.2,751.2 664.8,748.2 669.2,745.2    672.2,740.8 675.2,745.2  "/>
	<polygon id="XMLID_102_" class="st7" points="799.8,329.6 796.7,331.7 794.6,334.8 792.5,331.7 789.4,329.6 792.5,327.5    794.6,324.4 796.7,327.5  "/>
	<polygon id="XMLID_101_" class="st3" points="915.6,624 912.5,626.1 910.4,629.2 908.3,626.1 905.2,624 908.3,621.9 910.4,618.8    912.5,621.9  "/>
	<polygon id="XMLID_100_" class="st3" points="1054.2,203.4 1051.1,205.5 1049,208.6 1046.9,205.5 1043.8,203.4 1046.9,201.3    1049,198.2 1051.1,201.3  "/>
	<polygon id="XMLID_99_" class="st6" points="1290.6,142 1285.6,145.4 1282.2,150.5 1278.7,145.4 1273.7,142 1278.7,138.6    1282.2,133.5 1285.6,138.6  "/>
	<polygon id="XMLID_98_" class="st3" points="1075.4,419.2 1072.3,421.3 1070.2,424.4 1068.1,421.3 1065,419.2 1068.1,417.1    1070.2,414 1072.3,417.1  "/>
	<polygon id="XMLID_97_" class="st8" points="1151.8,734.4 1148.7,736.5 1146.6,739.6 1144.5,736.5 1141.4,734.4 1144.5,732.3    1146.6,729.2 1148.7,732.3  "/>
	<polygon id="XMLID_96_" class="st6" points="1323.4,431.2 1320.3,433.3 1318.2,436.4 1316.1,433.3 1313,431.2 1316.1,429.1    1318.2,426 1320.3,429.1  "/>
	<polygon id="XMLID_95_" class="st6" points="1427.6,654.2 1423.2,657.2 1420.2,661.6 1417.2,657.2 1412.8,654.2 1417.2,651.2    1420.2,646.8 1423.2,651.2  "/>
	<polygon id="XMLID_94_" class="st3" points="1457.1,398 1454,400.1 1451.9,403.2 1449.8,400.1 1446.7,398 1449.8,395.9    1451.9,392.8 1454,395.9  "/>
	<polygon id="XMLID_93_" class="st6" points="1678.6,501.2 1674.2,504.2 1671.2,508.6 1668.2,504.2 1663.8,501.2 1668.2,498.2    1671.2,493.8 1674.2,498.2  "/>
	<polygon id="XMLID_92_" class="st3" points="1748.4,108.2 1745.3,110.3 1743.2,113.4 1741.1,110.3 1738,108.2 1741.1,106.1    1743.2,103 1745.3,106.1  "/>
	<polygon id="XMLID_91_" class="st6" points="1721,798.2 1716.6,801.2 1713.6,805.6 1710.6,801.2 1706.2,798.2 1710.6,795.2    1713.6,790.8 1716.6,795.2  "/>
	<polygon id="XMLID_90_" class="st3" points="1500.3,982.2 1496.8,984.6 1494.4,988.2 1492,984.6 1488.4,982.2 1492,979.8    1494.4,976.3 1496.8,979.8  "/>
	<polygon id="XMLID_89_" class="st6" points="1269,1063.2 1264.9,1065.9 1262.2,1070 1259.5,1065.9 1255.4,1063.2 1259.5,1060.5    1262.2,1056.4 1264.9,1060.5  "/>
	<polygon id="XMLID_88_" class="st3" points="1010.4,982.2 1007.3,984.3 1005.2,987.4 1003.1,984.3 1000,982.2 1003.1,980.1    1005.2,977 1007.3,980.1  "/>
	<polygon id="XMLID_87_" class="st3" points="656.2,1074 653.1,1076.1 651,1079.2 648.9,1076.1 645.8,1074 648.9,1071.9 651,1068.8    653.1,1071.9  "/>
	<polygon id="XMLID_86_" class="st9" points="485,888.4 481.9,890.5 479.8,893.6 477.7,890.5 474.6,888.4 477.7,886.3 479.8,883.2    481.9,886.3  "/>
	<polygon id="XMLID_85_" class="st5" points="-50.4,1009.3 -53.5,1011.4 -55.6,1014.5 -57.7,1011.4 -60.8,1009.3 -57.7,1007.2    -55.6,1004.1 -53.5,1007.2  "/>
	<polygon id="XMLID_84_" class="st10" points="878.4,846 875.3,848.1 873.2,851.2 871.1,848.1 868,846 871.1,843.9 873.2,840.8    875.3,843.9  "/>
	<polygon id="XMLID_83_" class="st3" points="100.4,458 97.3,460.1 95.2,463.2 93.1,460.1 90,458 93.1,455.9 95.2,452.8 97.3,455.9     "/>
	<polygon id="XMLID_82_" class="st3" points="161.7,970.4 158.1,972.8 155.7,976.4 153.3,972.8 149.8,970.4 153.3,968 155.7,964.5    158.1,968  "/>
	<polygon id="XMLID_81_" class="st5" points="704.4,522.4 700.9,524.8 698.5,528.3 696.1,524.8 692.6,522.4 696.1,520 698.5,516.5    700.9,520  "/>
	<polygon id="XMLID_80_" class="st6" points="1637.3,1042 1632.2,1045.4 1628.8,1050.5 1625.3,1045.4 1620.3,1042 1625.3,1038.6    1628.8,1033.5 1632.2,1038.6  "/>
	<polygon id="XMLID_79_" class="st11" points="1808.2,1128.8 1805.7,1130.5 1804.1,1132.9 1802.4,1130.5 1799.9,1128.8    1802.4,1127.1 1804.1,1124.6 1805.7,1127.1  "/>
	<polygon id="XMLID_78_" class="st6" points="365.1,1128.8 360,1132.2 356.6,1137.3 353.2,1132.2 348.1,1128.8 353.2,1125.4    356.6,1120.3 360,1125.4  "/>
	<polygon id="XMLID_77_" class="st9" points="383,1009.3 379.9,1011.4 377.8,1014.5 375.7,1011.4 372.6,1009.3 375.7,1007.2    377.8,1004.1 379.9,1007.2  "/>
	<polygon id="XMLID_297_" class="st1" points="669.2,554 667.3,555.3 666.1,557.1 664.8,555.3 662.9,554 664.8,552.7 666.1,550.9    667.3,552.7  "/>
	<polygon id="XMLID_296_" class="st1" points="772.6,743 770.8,744.3 769.5,746.2 768.2,744.3 766.4,743 768.2,741.8 769.5,739.9    770.8,741.8  "/>
	<polygon id="XMLID_295_" class="st1" points="963.3,912.2 961.4,913.5 960.2,915.4 958.9,913.5 957,912.2 958.9,911 960.2,909.1    961.4,911  "/>
	<polygon id="XMLID_294_" class="st1" points="994.9,388 993,389.3 991.8,391.1 990.5,389.3 988.6,388 990.5,386.7 991.8,384.9    993,386.7  "/>
	<polygon id="XMLID_293_" class="st1" points="1112.7,674.8 1110.8,676.1 1109.6,678 1108.3,676.1 1106.5,674.8 1108.3,673.6    1109.6,671.7 1110.8,673.6  "/>
	<polygon id="XMLID_292_" class="st1" points="669.2,163.3 667.3,164.6 666.1,166.4 664.8,164.6 662.9,163.3 664.8,162 666.1,160.2    667.3,162  "/>
	<polygon id="XMLID_291_" class="st1" points="648.4,44 646.5,45.2 645.3,47.1 644,45.2 642.1,44 644,42.7 645.3,40.9 646.5,42.7     "/>
	<polygon id="XMLID_290_" class="st1" points="574.7,93.2 572.8,94.5 571.6,96.3 570.3,94.5 568.4,93.2 570.3,92 571.6,90.1    572.8,92  "/>
	<polygon id="XMLID_289_" class="st1" points="215,75.6 213.1,76.8 211.9,78.7 210.6,76.8 208.7,75.6 210.6,74.3 211.9,72.5    213.1,74.3  "/>
	<polygon id="XMLID_288_" class="st1" points="179.7,317.6 177.8,318.8 176.6,320.7 175.3,318.8 173.4,317.6 175.3,316.3    176.6,314.5 177.8,316.3  "/>
	<polygon id="XMLID_287_" class="st1" points="270.2,600.2 268.3,601.4 267.1,603.3 265.8,601.4 264,600.2 265.8,598.9 267.1,597.1    268.3,598.9  "/>
	<polygon id="XMLID_286_" class="st1" points="137.4,1048.4 135.5,1049.7 134.3,1051.5 133,1049.7 131.1,1048.4 133,1047.1    134.3,1045.3 135.5,1047.1  "/>
	<polygon id="XMLID_285_" class="st1" points="1285.3,75.6 1283.5,76.8 1282.2,78.7 1281,76.8 1279.1,75.6 1281,74.3 1282.2,72.5    1283.5,74.3  "/>
	<polygon id="XMLID_284_" class="st1" points="1264.5,259.6 1262.7,260.8 1261.4,262.7 1260.2,260.8 1258.3,259.6 1260.2,258.3    1261.4,256.4 1262.7,258.3  "/>
	<polygon id="XMLID_283_" class="st1" points="1366.7,610.6 1364.8,611.8 1363.6,613.7 1362.3,611.8 1360.4,610.6 1362.3,609.3    1363.6,607.5 1364.8,609.3  "/>
	<polygon id="XMLID_282_" class="st1" points="627.6,1048.4 625.7,1049.7 624.5,1051.5 623.2,1049.7 621.4,1048.4 623.2,1047.1    624.5,1045.3 625.7,1047.1  "/>
	<polygon id="XMLID_281_" class="st1" points="1254.2,1037.6 1252.3,1038.8 1251,1040.7 1249.8,1038.8 1247.9,1037.6 1249.8,1036.3    1251,1034.5 1252.3,1036.3  "/>
	<polygon id="XMLID_280_" class="st1" points="1494.3,753.4 1492.5,754.7 1491.2,756.6 1489.9,754.7 1488.1,753.4 1489.9,752.2    1491.2,750.3 1492.5,752.2  "/>
	<polygon id="XMLID_279_" class="st1" points="1526.1,75.6 1524.2,76.8 1522.9,78.7 1521.7,76.8 1519.8,75.6 1521.7,74.3    1522.9,72.5 1524.2,74.3  "/>
	<polygon id="XMLID_278_" class="st1" points="1867.8,224.7 1865.9,225.9 1864.7,227.8 1863.4,225.9 1861.6,224.7 1863.4,223.4    1864.7,221.6 1865.9,223.4  "/>
	<polygon id="XMLID_277_" class="st1" points="18.5,224.7 16.6,225.9 15.4,227.8 14.1,225.9 12.3,224.7 14.1,223.4 15.4,221.6    16.6,223.4  "/>
	<polygon id="XMLID_276_" class="st1" points="1912.9,307.2 1911,308.4 1909.8,310.3 1908.5,308.4 1906.6,307.2 1908.5,305.9    1909.8,304.1 1911,305.9  "/>
	<polygon id="XMLID_275_" class="st1" points="1627.7,296.8 1625.9,298.1 1624.6,299.9 1623.4,298.1 1621.5,296.8 1623.4,295.5    1624.6,293.7 1625.9,295.5  "/>
	<polygon id="XMLID_274_" class="st1" points="1749.8,691.2 1747.9,692.4 1746.6,694.3 1745.4,692.4 1743.5,691.2 1745.4,689.9    1746.6,688 1747.9,689.9  "/>
	<polygon id="XMLID_273_" class="st1" points="1847,854.9 1845.1,856.1 1843.9,858 1842.6,856.1 1840.8,854.9 1842.6,853.6    1843.9,851.8 1845.1,853.6  "/>
	<polygon id="XMLID_272_" class="st1" points="1902.5,564.4 1900.6,565.7 1899.4,567.5 1898.1,565.7 1896.3,564.4 1898.1,563.1    1899.4,561.3 1900.6,563.1  "/>
	<polygon id="XMLID_271_" class="st1" points="1681.7,1080 1679.8,1081.3 1678.6,1083.1 1677.3,1081.3 1675.4,1080 1677.3,1078.7    1678.6,1076.9 1679.8,1078.7  "/>
	<polygon id="XMLID_270_" class="st1" points="526.9,939.3 525,940.6 523.8,942.5 522.5,940.6 520.7,939.3 522.5,938.1 523.8,936.2    525,938.1  "/>
	<polygon id="XMLID_269_" class="st1" points="3.3,776 1.4,777.3 0.2,779.1 -1.1,777.3 -3,776 -1.1,774.7 0.2,772.9 1.4,774.7  "/>
	<polygon id="XMLID_268_" class="st1" points="889.5,573 887.6,574.3 886.4,576.2 885.1,574.3 883.3,573 885.1,571.8 886.4,569.9    887.6,571.8  "/>
	<polygon id="XMLID_267_" class="st1" points="452,328 450.1,329.2 448.8,331.1 447.6,329.2 445.7,328 447.6,326.7 448.8,324.9    450.1,326.7  "/>
	<polygon id="XMLID_266_" class="st1" points="215,713.3 213.1,714.6 211.9,716.5 210.6,714.6 208.7,713.3 210.6,712.1 211.9,710.2    213.1,712.1  "/>
	<polygon id="XMLID_265_" class="st1" points="1044.1,27.8 1042.2,29.1 1040.9,30.9 1039.7,29.1 1037.8,27.8 1039.7,26.5    1040.9,24.7 1042.2,26.5  "/>
	<polygon id="XMLID_264_" class="st1" points="1572.9,543.6 1571.1,544.9 1569.8,546.7 1568.6,544.9 1566.7,543.6 1568.6,542.3    1569.8,540.5 1571.1,542.3  "/>
	<polygon id="XMLID_263_" class="st1" points="388.3,173.7 386.5,175 385.2,176.8 383.9,175 382.1,173.7 383.9,172.4 385.2,170.6    386.5,172.4  "/>
	<polygon id="XMLID_262_" class="st1" points="1627.7,463.4 1625.9,464.7 1624.6,466.5 1623.4,464.7 1621.5,463.4 1623.4,462.1    1624.6,460.3 1625.9,462.1  "/>
	<polygon id="XMLID_261_" class="st1" points="409.5,972 407.7,973.2 406.4,975.1 405.1,973.2 403.3,972 405.1,970.7 406.4,968.9    407.7,970.7  "/>
	<polygon id="XMLID_260_" class="st1" points="498.4,437.6 496.5,438.8 495.3,440.7 494,438.8 492.2,437.6 494,436.3 495.3,434.4    496.5,436.3  "/>
	<polygon id="XMLID_259_" class="st1" points="1504.7,922.6 1502.8,923.9 1501.6,925.8 1500.3,923.9 1498.5,922.6 1500.3,921.4    1501.6,919.5 1502.8,921.4  "/>
	<polygon id="XMLID_258_" class="st3" points="85,102.2 81.9,104.3 79.8,107.4 77.7,104.3 74.6,102.2 77.7,100.1 79.8,97    81.9,100.1  "/>
	<polygon id="XMLID_257_" class="st4" points="390.4,65.2 387.3,67.3 385.2,70.4 383.1,67.3 380,65.2 383.1,63.1 385.2,60    387.3,63.1  "/>
	<polygon id="XMLID_256_" class="st5" points="310.1,199.4 305.7,202.4 302.7,206.9 299.7,202.4 295.3,199.4 299.7,196.4 302.7,192    305.7,196.4  "/>
	<polygon id="XMLID_255_" class="st3" points="686.8,328 683.7,330.1 681.6,333.2 679.5,330.1 676.4,328 679.5,325.9 681.6,322.8    683.7,325.9  "/>
	<polygon id="XMLID_254_" class="st6" points="801.3,65.2 795,69.5 790.7,75.8 786.4,69.5 780.1,65.2 786.4,60.9 790.7,54.6    795,60.9  "/>
	<polygon id="XMLID_253_" class="st5" points="391.1,463.4 387.6,465.8 385.2,469.3 382.8,465.8 379.3,463.4 382.8,461 385.2,457.5    387.6,461  "/>
	<polygon id="XMLID_252_" class="st5" points="139.5,600.2 136.4,602.3 134.3,605.4 132.2,602.3 129.1,600.2 132.2,598.1 134.3,595    136.4,598.1  "/>
	<polygon id="XMLID_251_" class="st5" points="391.1,706 387.6,708.4 385.2,711.9 382.8,708.4 379.3,706 382.8,703.6 385.2,700.1    387.6,703.6  "/>
	<polygon id="XMLID_250_" class="st6" points="750.6,678.2 746.2,681.2 743.2,685.6 740.2,681.2 735.8,678.2 740.2,675.2    743.2,670.8 746.2,675.2  "/>
	<polygon id="XMLID_249_" class="st7" points="870.8,259.6 867.7,261.7 865.6,264.8 863.5,261.7 860.4,259.6 863.5,257.5    865.6,254.4 867.7,257.5  "/>
	<polygon id="XMLID_248_" class="st3" points="986.6,554 983.5,556.1 981.4,559.2 979.3,556.1 976.2,554 979.3,551.9 981.4,548.8    983.5,551.9  "/>
	<polygon id="XMLID_247_" class="st3" points="1125.2,133.4 1122.1,135.5 1120,138.6 1117.9,135.5 1114.8,133.4 1117.9,131.3    1120,128.2 1122.1,131.3  "/>
	<polygon id="XMLID_246_" class="st6" points="1361.6,72 1356.6,75.4 1353.2,80.5 1349.7,75.4 1344.7,72 1349.7,68.6 1353.2,63.5    1356.6,68.6  "/>
	<polygon id="XMLID_245_" class="st3" points="1146.4,349.2 1143.3,351.3 1141.2,354.4 1139.1,351.3 1136,349.2 1139.1,347.1    1141.2,344 1143.3,347.1  "/>
	<polygon id="XMLID_244_" class="st8" points="1222.8,664.4 1219.7,666.5 1217.6,669.6 1215.5,666.5 1212.4,664.4 1215.5,662.3    1217.6,659.2 1219.7,662.3  "/>
	<polygon id="XMLID_243_" class="st6" points="1394.4,361.2 1391.3,363.3 1389.2,366.4 1387.1,363.3 1384,361.2 1387.1,359.1    1389.2,356 1391.3,359.1  "/>
	<polygon id="XMLID_242_" class="st6" points="1498.6,584.2 1494.2,587.2 1491.2,591.6 1488.2,587.2 1483.8,584.2 1488.2,581.2    1491.2,576.8 1494.2,581.2  "/>
	<polygon id="XMLID_241_" class="st3" points="1528.1,328 1525,330.1 1522.9,333.2 1520.8,330.1 1517.7,328 1520.8,325.9    1522.9,322.8 1525,325.9  "/>
	<polygon id="XMLID_240_" class="st6" points="1749.6,431.2 1745.2,434.2 1742.2,438.6 1739.2,434.2 1734.8,431.2 1739.2,428.2    1742.2,423.8 1745.2,428.2  "/>
	<polygon id="XMLID_239_" class="st3" points="1819.4,38.2 1816.3,40.3 1814.2,43.4 1812.1,40.3 1809,38.2 1812.1,36.1 1814.2,33    1816.3,36.1  "/>
	<polygon id="XMLID_238_" class="st6" points="1792,728.2 1787.6,731.2 1784.6,735.6 1781.6,731.2 1777.2,728.2 1781.6,725.2    1784.6,720.8 1787.6,725.2  "/>
	<polygon id="XMLID_237_" class="st3" points="1571.3,912.2 1567.8,914.6 1565.4,918.2 1563,914.6 1559.4,912.2 1563,909.8    1565.4,906.3 1567.8,909.8  "/>
	<polygon id="XMLID_236_" class="st6" points="1340,993.2 1335.9,995.9 1333.2,1000 1330.5,995.9 1326.4,993.2 1330.5,990.5    1333.2,986.4 1335.9,990.5  "/>
	<polygon id="XMLID_235_" class="st3" points="1081.4,912.2 1078.3,914.3 1076.2,917.4 1074.1,914.3 1071,912.2 1074.1,910.1    1076.2,907 1078.3,910.1  "/>
	<polygon id="XMLID_234_" class="st3" points="727.2,1004 724.1,1006.1 722,1009.2 719.9,1006.1 716.8,1004 719.9,1001.9 722,998.8    724.1,1001.9  "/>
	<polygon id="XMLID_233_" class="st9" points="556,818.4 552.9,820.5 550.8,823.6 548.7,820.5 545.6,818.4 548.7,816.3 550.8,813.2    552.9,816.3  "/>
	<polygon id="XMLID_232_" class="st5" points="20.6,939.3 17.5,941.4 15.4,944.5 13.3,941.4 10.2,939.3 13.3,937.2 15.4,934.1    17.5,937.2  "/>
	<polygon id="XMLID_231_" class="st10" points="949.4,776 946.3,778.1 944.2,781.2 942.1,778.1 939,776 942.1,773.9 944.2,770.8    946.3,773.9  "/>
	<polygon id="XMLID_230_" class="st3" points="171.4,388 168.3,390.1 166.2,393.2 164.1,390.1 161,388 164.1,385.9 166.2,382.8    168.3,385.9  "/>
	<polygon id="XMLID_229_" class="st3" points="232.7,900.4 229.1,902.8 226.7,906.4 224.3,902.8 220.8,900.4 224.3,898 226.7,894.5    229.1,898  "/>
	<polygon id="XMLID_228_" class="st5" points="775.4,452.4 771.9,454.8 769.5,458.3 767.1,454.8 763.6,452.4 767.1,450 769.5,446.5    771.9,450  "/>
	<polygon id="XMLID_227_" class="st6" points="1708.3,972 1703.2,975.4 1699.8,980.5 1696.3,975.4 1691.3,972 1696.3,968.6    1699.8,963.5 1703.2,968.6  "/>
	<polygon id="XMLID_226_" class="st11" points="1879.2,1058.8 1876.7,1060.5 1875.1,1062.9 1873.4,1060.5 1870.9,1058.8    1873.4,1057.1 1875.1,1054.6 1876.7,1057.1  "/>
	<polygon id="XMLID_225_" class="st6" points="436.1,1058.8 431,1062.2 427.6,1067.3 424.2,1062.2 419.1,1058.8 424.2,1055.4    427.6,1050.3 431,1055.4  "/>
	<polygon id="XMLID_224_" class="st9" points="454,939.3 450.9,941.4 448.8,944.5 446.7,941.4 443.6,939.3 446.7,937.2 448.8,934.1    450.9,937.2  "/>
	<polygon id="XMLID_223_" class="st1" points="598.3,624 596.5,625.3 595.2,627.1 594,625.3 592.1,624 594,622.7 595.2,620.9    596.5,622.7  "/>
	<polygon id="XMLID_222_" class="st1" points="701.8,813 699.9,814.3 698.7,816.2 697.4,814.3 695.5,813 697.4,811.8 698.7,809.9    699.9,811.8  "/>
	<polygon id="XMLID_221_" class="st1" points="892.4,982.2 890.6,983.5 889.3,985.4 888.1,983.5 886.2,982.2 888.1,981 889.3,979.1    890.6,981  "/>
	<polygon id="XMLID_220_" class="st1" points="924,458 922.2,459.3 920.9,461.1 919.7,459.3 917.8,458 919.7,456.7 920.9,454.9    922.2,456.7  "/>
	<polygon id="XMLID_219_" class="st1" points="1041.9,744.8 1040,746.1 1038.7,748 1037.5,746.1 1035.6,744.8 1037.5,743.6    1038.7,741.7 1040,743.6  "/>
	<polygon id="XMLID_218_" class="st1" points="598.3,233.3 596.5,234.6 595.2,236.4 594,234.6 592.1,233.3 594,232 595.2,230.2    596.5,232  "/>
	<polygon id="XMLID_217_" class="st1" points="577.5,114 575.7,115.2 574.4,117.1 573.2,115.2 571.3,114 573.2,112.7 574.4,110.9    575.7,112.7  "/>
	<polygon id="XMLID_216_" class="st1" points="503.8,163.2 502,164.5 500.7,166.3 499.5,164.5 497.6,163.2 499.5,162 500.7,160.1    502,162  "/>
	<polygon id="XMLID_215_" class="st1" points="144.1,145.6 142.3,146.8 141,148.7 139.8,146.8 137.9,145.6 139.8,144.3 141,142.5    142.3,144.3  "/>
	<polygon id="XMLID_214_" class="st1" points="108.8,387.6 107,388.8 105.7,390.7 104.5,388.8 102.6,387.6 104.5,386.3 105.7,384.5    107,386.3  "/>
	<polygon id="XMLID_213_" class="st1" points="199.4,670.2 197.5,671.4 196.2,673.3 195,671.4 193.1,670.2 195,668.9 196.2,667.1    197.5,668.9  "/>
	<polygon id="XMLID_212_" class="st1" points="66.5,1118.4 64.7,1119.7 63.4,1121.5 62.2,1119.7 60.3,1118.4 62.2,1117.1    63.4,1115.3 64.7,1117.1  "/>
	<polygon id="XMLID_211_" class="st1" points="1214.5,145.6 1212.6,146.8 1211.4,148.7 1210.1,146.8 1208.3,145.6 1210.1,144.3    1211.4,142.5 1212.6,144.3  "/>
	<polygon id="XMLID_210_" class="st1" points="1193.7,329.6 1191.8,330.8 1190.6,332.7 1189.3,330.8 1187.5,329.6 1189.3,328.3    1190.6,326.4 1191.8,328.3  "/>
	<polygon id="XMLID_209_" class="st1" points="1295.8,680.6 1294,681.8 1292.7,683.7 1291.5,681.8 1289.6,680.6 1291.5,679.3    1292.7,677.5 1294,679.3  "/>
	<polygon id="XMLID_208_" class="st1" points="556.8,1118.4 554.9,1119.7 553.6,1121.5 552.4,1119.7 550.5,1118.4 552.4,1117.1    553.6,1115.3 554.9,1117.1  "/>
	<polygon id="XMLID_207_" class="st1" points="1183.3,1107.6 1181.4,1108.8 1180.2,1110.7 1178.9,1108.8 1177.1,1107.6    1178.9,1106.3 1180.2,1104.5 1181.4,1106.3  "/>
	<polygon id="XMLID_206_" class="st1" points="1423.5,823.4 1421.6,824.7 1420.4,826.6 1419.1,824.7 1417.2,823.4 1419.1,822.2    1420.4,820.3 1421.6,822.2  "/>
	<polygon id="XMLID_205_" class="st1" points="1455.2,145.6 1453.4,146.8 1452.1,148.7 1450.8,146.8 1449,145.6 1450.8,144.3    1452.1,142.5 1453.4,144.3  "/>
	<polygon id="XMLID_204_" class="st1" points="1797,294.7 1795.1,295.9 1793.8,297.8 1792.6,295.9 1790.7,294.7 1792.6,293.4    1793.8,291.6 1795.1,293.4  "/>
	<polygon id="XMLID_203_" class="st1" points="-52.4,294.7 -54.2,295.9 -55.5,297.8 -56.7,295.9 -58.6,294.7 -56.7,293.4    -55.5,291.6 -54.2,293.4  "/>
	<polygon id="XMLID_202_" class="st1" points="1842,377.2 1840.2,378.4 1838.9,380.3 1837.7,378.4 1835.8,377.2 1837.7,375.9    1838.9,374.1 1840.2,375.9  "/>
	<polygon id="XMLID_201_" class="st1" points="1556.9,366.8 1555,368.1 1553.8,369.9 1552.5,368.1 1550.6,366.8 1552.5,365.5    1553.8,363.7 1555,365.5  "/>
	<polygon id="XMLID_200_" class="st1" points="1678.9,761.2 1677.1,762.4 1675.8,764.3 1674.5,762.4 1672.7,761.2 1674.5,759.9    1675.8,758 1677.1,759.9  "/>
	<polygon id="XMLID_199_" class="st1" points="1776.2,924.9 1774.3,926.1 1773,928 1771.8,926.1 1769.9,924.9 1771.8,923.6    1773,921.8 1774.3,923.6  "/>
	<polygon id="XMLID_198_" class="st1" points="1831.6,634.4 1829.8,635.7 1828.5,637.5 1827.3,635.7 1825.4,634.4 1827.3,633.1    1828.5,631.3 1829.8,633.1  "/>
	<polygon id="XMLID_197_" class="st1" points="1610.8,1150 1609,1151.3 1607.7,1153.1 1606.5,1151.3 1604.6,1150 1606.5,1148.7    1607.7,1146.9 1609,1148.7  "/>
	<polygon id="XMLID_196_" class="st1" points="456,1009.3 454.2,1010.6 452.9,1012.5 451.7,1010.6 449.8,1009.3 451.7,1008.1    452.9,1006.2 454.2,1008.1  "/>
	<polygon id="XMLID_195_" class="st1" points="-67.6,846 -69.4,847.3 -70.7,849.1 -71.9,847.3 -73.8,846 -71.9,844.7 -70.7,842.9    -69.4,844.7  "/>
	<polygon id="XMLID_194_" class="st1" points="818.7,643 816.8,644.3 815.5,646.2 814.3,644.3 812.4,643 814.3,641.8 815.5,639.9    816.8,641.8  "/>
	<polygon id="XMLID_193_" class="st1" points="381.1,398 379.2,399.2 378,401.1 376.7,399.2 374.9,398 376.7,396.7 378,394.9    379.2,396.7  "/>
	<polygon id="XMLID_192_" class="st1" points="144.1,783.3 142.3,784.6 141,786.5 139.8,784.6 137.9,783.3 139.8,782.1 141,780.2    142.3,782.1  "/>
	<polygon id="XMLID_191_" class="st1" points="973.2,97.8 971.4,99.1 970.1,100.9 968.8,99.1 967,97.8 968.8,96.5 970.1,94.7    971.4,96.5  "/>
	<polygon id="XMLID_190_" class="st1" points="1502.1,613.6 1500.2,614.9 1499,616.7 1497.7,614.9 1495.9,613.6 1497.7,612.3    1499,610.5 1500.2,612.3  "/>
	<polygon id="XMLID_189_" class="st1" points="317.5,243.7 315.6,245 314.4,246.8 313.1,245 311.2,243.7 313.1,242.4 314.4,240.6    315.6,242.4  "/>
	<polygon id="XMLID_188_" class="st1" points="1556.9,533.4 1555,534.7 1553.8,536.5 1552.5,534.7 1550.6,533.4 1552.5,532.1    1553.8,530.3 1555,532.1  "/>
	<polygon id="XMLID_187_" class="st1" points="338.7,1042 336.8,1043.2 335.6,1045.1 334.3,1043.2 332.4,1042 334.3,1040.7    335.6,1038.9 336.8,1040.7  "/>
	<polygon id="XMLID_186_" class="st1" points="427.5,507.6 425.7,508.8 424.4,510.7 423.2,508.8 421.3,507.6 423.2,506.3    424.4,504.4 425.7,506.3  "/>
	<polygon id="XMLID_185_" class="st1" points="1433.9,992.6 1432,993.9 1430.7,995.8 1429.5,993.9 1427.6,992.6 1429.5,991.4    1430.7,989.5 1432,991.4  "/>
	<polygon id="XMLID_184_" class="st3" points="14.1,172.2 11,174.3 8.9,177.4 6.8,174.3 3.7,172.2 6.8,170.1 8.9,167 11,170.1  "/>
	<polygon id="XMLID_183_" class="st4" points="319.5,135.2 316.4,137.3 314.4,140.4 312.3,137.3 309.2,135.2 312.3,133.1 314.4,130    316.4,133.1  "/>
	<polygon id="XMLID_182_" class="st5" points="239.3,269.4 234.9,272.4 231.9,276.9 228.9,272.4 224.4,269.4 228.9,266.4 231.9,262    234.9,266.4  "/>
	<polygon id="XMLID_181_" class="st3" points="616,398 612.9,400.1 610.8,403.2 608.7,400.1 605.6,398 608.7,395.9 610.8,392.8    612.9,395.9  "/>
	<polygon id="XMLID_180_" class="st6" points="730.5,135.2 724.2,139.5 719.9,145.8 715.6,139.5 709.3,135.2 715.6,130.9    719.9,124.6 724.2,130.9  "/>
	<polygon id="XMLID_179_" class="st5" points="320.3,533.4 316.7,535.8 314.4,539.3 312,535.8 308.4,533.4 312,531 314.4,527.5    316.7,531  "/>
	<polygon id="XMLID_178_" class="st5" points="68.6,670.2 65.5,672.3 63.4,675.4 61.3,672.3 58.2,670.2 61.3,668.1 63.4,665    65.5,668.1  "/>
	<polygon id="XMLID_177_" class="st5" points="320.3,776 316.7,778.4 314.4,781.9 312,778.4 308.4,776 312,773.6 314.4,770.1    316.7,773.6  "/>
	<polygon id="XMLID_176_" class="st6" points="679.8,748.2 675.3,751.2 672.4,755.6 669.4,751.2 664.9,748.2 669.4,745.2    672.4,740.8 675.3,745.2  "/>
	<polygon id="XMLID_175_" class="st7" points="800,329.6 796.9,331.7 794.8,334.8 792.7,331.7 789.6,329.6 792.7,327.5 794.8,324.4    796.9,327.5  "/>
	<polygon id="XMLID_174_" class="st3" points="915.7,624 912.6,626.1 910.5,629.2 908.4,626.1 905.3,624 908.4,621.9 910.5,618.8    912.6,621.9  "/>
	<polygon id="XMLID_173_" class="st3" points="1054.3,203.4 1051.2,205.5 1049.1,208.6 1047,205.5 1043.9,203.4 1047,201.3    1049.1,198.2 1051.2,201.3  "/>
	<polygon id="XMLID_172_" class="st6" points="1290.8,142 1285.7,145.4 1282.3,150.5 1278.9,145.4 1273.8,142 1278.9,138.6    1282.3,133.5 1285.7,138.6  "/>
	<polygon id="XMLID_171_" class="st3" points="1075.5,419.2 1072.4,421.3 1070.4,424.4 1068.3,421.3 1065.2,419.2 1068.3,417.1    1070.4,414 1072.4,417.1  "/>
	<polygon id="XMLID_170_" class="st8" points="1152,734.4 1148.9,736.5 1146.8,739.6 1144.7,736.5 1141.6,734.4 1144.7,732.3    1146.8,729.2 1148.9,732.3  "/>
	<polygon id="XMLID_169_" class="st6" points="1323.5,431.2 1320.4,433.3 1318.4,436.4 1316.3,433.3 1313.2,431.2 1316.3,429.1    1318.4,426 1320.4,429.1  "/>
	<polygon id="XMLID_168_" class="st6" points="1427.8,654.2 1423.3,657.2 1420.4,661.6 1417.4,657.2 1412.9,654.2 1417.4,651.2    1420.4,646.8 1423.3,651.2  "/>
	<polygon id="XMLID_167_" class="st3" points="1457.3,398 1454.2,400.1 1452.1,403.2 1450,400.1 1446.9,398 1450,395.9    1452.1,392.8 1454.2,395.9  "/>
	<polygon id="XMLID_166_" class="st6" points="1678.8,501.2 1674.3,504.2 1671.4,508.6 1668.4,504.2 1663.9,501.2 1668.4,498.2    1671.4,493.8 1674.3,498.2  "/>
	<polygon id="XMLID_165_" class="st3" points="1748.5,108.2 1745.4,110.3 1743.4,113.4 1741.3,110.3 1738.2,108.2 1741.3,106.1    1743.4,103 1745.4,106.1  "/>
	<polygon id="XMLID_164_" class="st6" points="1721.2,798.2 1716.8,801.2 1713.8,805.6 1710.8,801.2 1706.4,798.2 1710.8,795.2    1713.8,790.8 1716.8,795.2  "/>
	<polygon id="XMLID_163_" class="st3" points="1500.5,982.2 1496.9,984.6 1494.5,988.2 1492.1,984.6 1488.6,982.2 1492.1,979.8    1494.5,976.3 1496.9,979.8  "/>
	<polygon id="XMLID_162_" class="st6" points="1269.1,1063.2 1265.1,1065.9 1262.4,1070 1259.6,1065.9 1255.6,1063.2 1259.6,1060.5    1262.4,1056.4 1265.1,1060.5  "/>
	<polygon id="XMLID_161_" class="st3" points="1010.5,982.2 1007.4,984.3 1005.4,987.4 1003.3,984.3 1000.2,982.2 1003.3,980.1    1005.4,977 1007.4,980.1  "/>
	<polygon id="XMLID_160_" class="st3" points="656.3,1074 653.2,1076.1 651.1,1079.2 649,1076.1 645.9,1074 649,1071.9    651.1,1068.8 653.2,1071.9  "/>
	<polygon id="XMLID_159_" class="st9" points="485.1,888.4 482,890.5 479.9,893.6 477.8,890.5 474.7,888.4 477.8,886.3 479.9,883.2    482,886.3  "/>
	<polygon id="XMLID_158_" class="st5" points="-50.3,1009.3 -53.4,1011.4 -55.5,1014.5 -57.6,1011.4 -60.7,1009.3 -57.6,1007.2    -55.5,1004.1 -53.4,1007.2  "/>
	<polygon id="XMLID_157_" class="st10" points="878.5,846 875.4,848.1 873.3,851.2 871.2,848.1 868.1,846 871.2,843.9 873.3,840.8    875.4,843.9  "/>
	<polygon id="XMLID_156_" class="st3" points="100.5,458 97.4,460.1 95.3,463.2 93.2,460.1 90.1,458 93.2,455.9 95.3,452.8    97.4,455.9  "/>
	<polygon id="XMLID_155_" class="st3" points="161.8,970.4 158.3,972.8 155.9,976.4 153.5,972.8 149.9,970.4 153.5,968 155.9,964.5    158.3,968  "/>
	<polygon id="XMLID_154_" class="st5" points="704.6,522.4 701.1,524.8 698.7,528.3 696.3,524.8 692.7,522.4 696.3,520 698.7,516.5    701.1,520  "/>
	<polygon id="XMLID_153_" class="st6" points="1637.4,1042 1632.3,1045.4 1628.9,1050.5 1625.5,1045.4 1620.4,1042 1625.5,1038.6    1628.9,1033.5 1632.3,1038.6  "/>
	<polygon id="XMLID_152_" class="st11" points="1808.4,1128.8 1805.9,1130.5 1804.2,1132.9 1802.5,1130.5 1800.1,1128.8    1802.5,1127.1 1804.2,1124.6 1805.9,1127.1  "/>
	<polygon id="XMLID_112_" class="st6" points="365.3,1128.8 360.2,1132.2 356.8,1137.3 353.4,1132.2 348.3,1128.8 353.4,1125.4    356.8,1120.3 360.2,1125.4  "/>
	<polygon id="XMLID_5_" class="st9" points="383.2,1009.3 380.1,1011.4 378,1014.5 375.9,1011.4 372.8,1009.3 375.9,1007.2    378,1004.1 380.1,1007.2  "/>
</g>
</svg>