<?xml version="1.0" encoding="utf-8"?>
<svg version="1.1" id="Calque_1" xmlns="http://www.w3.org/2000/svg" xmlns:xlink="http://www.w3.org/1999/xlink" x="0px" y="0px"
	 viewBox="0 0 2500 2500" style="enable-background:new 0 0 2500 2500;" xml:space="preserve">
<style type="text/css">
	.st0{fill:#231F20;}
</style>
<path class="st0" d="M1879.3,1516.8h310.4V771.6L1840,421.9l-219.5,219.5l258.8,258.8V1516.8L1879.3,1516.8z M2190.5,1672.3H1107.9
	l-258.8-258.8l109.7-109.7l213.7,213.7h439.7l-433.2-434l110.5-110.5l433.2,433.2V966.5L1510,753.6l108.9-108.9l-538-540.4H0
	l309.5,309.5v0.8h642l226.8,226.8L846.7,973L619.9,746.2V570.2H309.5v304.6L846.7,1412l-218.6,218.6l349.7,349.7H2500L2190.5,1672.3
	L2190.5,1672.3z"/>
<g>
	<path d="M322.8,2071.2H349l55.8,213.6l48.1-213.6h39.7l-66.5,272.4h-39L337,2153.3l-52.5,190.3h-39l-66.5-272.4h39.7l48.1,213.6
		L322.8,2071.2z"/>
	<path d="M533.9,2071.2h38.2v272.4h-38.2V2071.2z M552.5,2071.2h156.4v36.3H552.5V2071.2z M552.5,2190.2h135.8v36.3H552.5V2190.2z
		 M552.5,2307.3h156.4v36.3H552.5V2307.3z"/>
	<path d="M763.2,2071.2h38v272.4h-38V2071.2z M785.7,2308.2h73.8c19.4,0,33.5-3.7,42.3-11.1c8.9-7.4,13.3-17.7,13.3-31.1v-0.6
		c0-9.2-1.6-17.2-4.8-23.8c-3.2-6.6-8.2-11.7-15.1-15.3c-6.9-3.6-15.7-5.3-26.4-5.3h-83.2v-34.5h83.2c14.1,0,24.8-3.3,31.9-9.9
		c7.2-6.6,10.8-16.4,10.8-29.4c0-13.6-4-23.8-12-30.5c-8-6.7-20-10.1-36-10.1h-77.9v-35.4h84.9c17.6,0,32.3,3,44.2,9
		c11.9,6,20.7,14.5,26.6,25.5c5.9,11,8.8,24.1,8.8,39.3c0,9.4-1.8,18.1-5.4,26.3c-3.6,8.2-9.2,15.2-16.6,21
		c-7.4,5.8-16.6,9.7-27.6,11.7c11,1.6,20.5,5.5,28.5,11.7c8,6.2,14.1,13.9,18.4,23.1c4.2,9.2,6.4,19.2,6.4,30v0.6
		c0,14.7-3.2,27.7-9.7,39c-6.5,11.2-15.8,19.9-27.9,26c-12.1,6.1-26.2,9.2-42.3,9.2h-88.1V2308.2z"/>
	<path d="M1067.5,2346.4c0,0-5.9-1.3-17.6-3.7c-11.7-2.5-22.7-6.2-32.9-11.2c-10.2-5-19.7-11.2-28.6-18.7l23.8-29.2
		c10.4,9,21.8,15.7,34.3,20.2c12.5,4.5,26,6.7,40.7,6.7c19.7,0,35-3.7,45.9-11c10.9-7.3,16.3-17.6,16.3-31v-0.2
		c0-9.5-2.5-17-7.4-22.6c-4.9-5.6-11.3-9.7-19.1-12.4c-7.8-2.7-17.9-5.2-30.3-7.4c-0.4-0.1-0.8-0.2-1.2-0.2c-0.4,0-0.8-0.1-1.2-0.2
		l-2.8-0.6c-18.2-3.1-33.1-6.7-44.5-10.6s-21.2-11.1-29.3-21.5c-8.1-10.4-12.2-25.3-12.2-44.5v-0.2c0-16.9,3.8-31.3,11.3-43.2
		c7.6-11.9,18.6-21,33.1-27.3c14.5-6.2,31.9-9.4,52.3-9.4c9.7,0,19.3,1.1,28.8,3.2c9.4,2.1,18.7,5.3,27.9,9.5
		c9.2,4.2,18.2,9.5,27.1,15.8l-21.7,30.3c-10.4-7.6-20.7-13.3-31-17.1c-10.3-3.8-20.6-5.7-31-5.7c-18.6,0-33.1,3.7-43.4,11.1
		c-10.3,7.4-15.5,18-15.5,31.6v0.2c0,9.4,2.7,16.7,8,22.1c5.3,5.4,11.9,9.3,19.9,11.9c7.9,2.6,19,5.2,33.1,8c0.5,0.1,1,0.2,1.4,0.3
		c0.4,0.1,0.9,0.2,1.4,0.3c0.6,0.1,1.3,0.3,2.1,0.4c0.7,0.1,1.4,0.3,2.1,0.4c16.5,3.4,30.3,7.4,41.3,12
		c11.1,4.6,20.3,12.1,27.7,22.4c7.4,10.3,11.1,24.4,11.1,42.2v0.4c0,16.6-3.9,30.8-11.8,42.6c-7.9,11.8-19.3,20.8-34.2,27
		c-14.9,6.2-32.9,9.3-54,9.3C1074,2346.4,1067.5,2346.4,1067.5,2346.4z"/>
	<path d="M1273.9,2334c-14.5-8.3-25.7-20-33.6-35.2c-7.9-15.2-11.9-32.8-11.9-52.7v-77.2c0-20,4-37.6,11.9-52.7
		c7.9-15.2,19.1-26.9,33.6-35.2c14.5-8.3,31.2-12.5,50.2-12.5c19,0,35.7,4.2,50.2,12.5c14.5,8.3,25.7,20,33.6,35.2
		c7.9,15.2,11.9,32.8,11.9,52.7v77.2c0,20-4,37.6-11.9,52.7c-7.9,15.2-19.1,26.9-33.6,35.2c-14.5,8.3-31.2,12.5-50.2,12.5
		C1305.1,2346.4,1288.4,2342.3,1273.9,2334z M1353.8,2301.2c8.6-5.1,15.2-12.2,19.9-21.5c4.7-9.3,7-20.1,7-32.3v-79.8
		c0-12.2-2.3-23-7-32.3c-4.7-9.3-11.3-16.5-19.9-21.5c-8.6-5.1-18.5-7.6-29.7-7.6c-11.2,0-21.1,2.5-29.7,7.6
		c-8.6,5.1-15.2,12.2-19.9,21.5c-4.7,9.3-7,20.1-7,32.3v79.8c0,12.2,2.3,23,7,32.3c4.7,9.3,11.3,16.5,19.9,21.5
		c8.6,5.1,18.5,7.6,29.7,7.6C1335.4,2308.8,1345.3,2306.2,1353.8,2301.2z"/>
	<path d="M1535.1,2346.4c0,0-7.2-4.2-21.5-12.6c-14.3-8.4-25.4-20.2-33.3-35.6c-7.9-15.4-11.8-33.2-11.8-53.4v-74.8
		c0-20.2,3.9-38,11.8-53.4c7.9-15.4,19-27.3,33.3-35.7c14.3-8.4,30.9-12.6,49.7-12.6c15.6,0,30,3.3,43.1,10
		c13.1,6.7,24.1,16.1,32.9,28.4c8.8,12.2,14.8,26.4,17.9,42.5h-39.2c-2.4-8.5-6.3-16.1-11.9-22.8c-5.6-6.7-12.1-11.8-19.6-15.5
		c-7.5-3.6-15.2-5.4-23.2-5.4c-11.1,0-20.9,2.7-29.2,8.1c-8.4,5.4-14.9,12.9-19.5,22.6c-4.6,9.7-6.9,21-6.9,33.8v74.8
		c0,12.7,2.3,24,6.9,33.7c4.6,9.7,11.1,17.3,19.5,22.6c8.4,5.3,18.1,8,29.2,8c8.1,0,15.9-1.7,23.3-5.1c7.4-3.4,13.9-8.4,19.5-15
		c5.6-6.6,9.5-14.5,11.9-23.6h39.2c-3.1,16.1-9.1,30.3-18,42.5c-8.9,12.2-19.9,21.7-33,28.4c-13.1,6.7-27.4,10-42.9,10
		C1544.5,2346.4,1535.1,2346.4,1535.1,2346.4z"/>
	<path d="M1707.8,2071.2h38.2v272.4h-38.2V2071.2z M1737.8,2224.1l120.3-152.9h47l-172.9,210.2L1737.8,2224.1z M1783.1,2198.2
		l30.2-27.9l103.2,173.3h-46.8L1783.1,2198.2z"/>
	<path d="M1957.7,2071.2h38.2v272.4h-38.2V2071.2z M1976.3,2071.2h156.4v36.3h-156.4V2071.2z M1976.3,2190.2h135.8v36.3h-135.8
		V2190.2z M1976.3,2307.3h156.4v36.3h-156.4V2307.3z"/>
	<path d="M2157,2071.2h192.2v36.3H2157V2071.2z M2234,2093.5h38.2v250.1H2234V2093.5z"/>
</g>
</svg>
